<svg xmlns="http://www.w3.org/2000/svg" xmlns:xlink="http://www.w3.org/1999/xlink" width="40" zoomAndPan="magnify" viewBox="0 0 30 30.000001" height="40" preserveAspectRatio="xMidYMid meet" version="1.0"><defs><g/><clipPath id="064fbd9b0c"><path d="M 1.085938 2.902344 L 28.65625 2.902344 L 28.65625 26.128906 L 1.085938 26.128906 Z M 1.085938 2.902344 " clip-rule="nonzero"/></clipPath><clipPath id="53c968d293"><path d="M 0.671875 2 L 1.601562 2 L 1.601562 3 L 0.671875 3 Z M 0.671875 2 " clip-rule="nonzero"/></clipPath><clipPath id="30913f1a65"><rect x="0" width="2" y="0" height="4"/></clipPath></defs><g clip-path="url(#064fbd9b0c)"><path fill="#8868c2" d="M 14.996094 4.078125 C 11.4375 4.078125 8.21875 5.03125 5.902344 6.589844 C 3.648438 8.105469 2.25 10.164062 2.25 12.414062 C 2.25 14.601562 3.554688 16.597656 5.679688 18.09375 C 7.5625 19.414062 10.074219 20.332031 12.890625 20.636719 L 12.859375 20.589844 L 12.839844 20.554688 L 12.808594 20.523438 L 12.792969 20.503906 L 12.792969 20.488281 L 12.773438 20.472656 L 12.757812 20.4375 L 12.742188 20.4375 L 12.707031 20.386719 L 12.691406 20.355469 L 12.675781 20.335938 L 12.65625 20.304688 L 12.640625 20.269531 L 12.609375 20.238281 L 12.589844 20.222656 L 12.558594 20.152344 L 12.539062 20.121094 L 12.523438 20.085938 L 12.507812 20.070312 L 12.492188 20.070312 L 12.472656 20.035156 L 12.472656 20.019531 L 12.457031 20.003906 L 12.441406 19.96875 L 12.425781 19.9375 L 12.40625 19.921875 L 12.375 19.851562 L 12.339844 19.820312 L 12.339844 19.832031 L 12.324219 19.8125 L 12.308594 19.78125 L 12.289062 19.765625 L 12.273438 19.730469 L 12.273438 19.71875 L 12.238281 19.667969 L 12.222656 19.636719 L 12.207031 19.621094 L 12.207031 19.609375 L 12.191406 19.574219 L 12.171875 19.558594 L 12.15625 19.507812 L 12.140625 19.476562 L 12.125 19.457031 L 12.089844 19.390625 L 12.074219 19.359375 L 12.054688 19.339844 L 12.054688 19.324219 L 12.039062 19.289062 L 12.039062 19.273438 L 12.023438 19.257812 L 12.007812 19.222656 L 11.988281 19.191406 L 11.972656 19.15625 L 11.957031 19.125 L 11.9375 19.105469 L 11.921875 19.058594 L 11.90625 19.039062 L 11.890625 19.007812 L 11.890625 18.996094 L 11.871094 18.980469 L 11.871094 18.945312 L 11.855469 18.945312 L 11.855469 18.914062 L 11.824219 18.84375 L 11.804688 18.828125 L 11.804688 18.796875 L 11.789062 18.761719 L 11.773438 18.730469 L 11.753906 18.695312 L 11.738281 18.644531 L 11.707031 18.578125 L 11.6875 18.527344 L 11.671875 18.460938 L 11.640625 18.394531 L 11.621094 18.34375 L 11.605469 18.277344 L 11.570312 18.226562 L 11.539062 18.09375 L 11.523438 18.042969 L 11.488281 17.976562 L 11.472656 17.910156 L 11.453125 17.84375 L 11.4375 17.792969 L 11.40625 17.660156 L 11.386719 17.59375 L 11.355469 17.542969 L 11.339844 17.476562 L 11.320312 17.410156 L 11.304688 17.34375 L 11.289062 17.273438 L 11.269531 17.207031 L 11.253906 17.140625 L 11.253906 17.074219 L 11.238281 17.023438 L 11.222656 16.957031 L 11.203125 16.890625 L 11.171875 16.757812 L 11.152344 16.691406 L 11.152344 16.710938 L 11.121094 16.578125 L 11.121094 16.511719 L 11.105469 16.445312 L 11.085938 16.378906 L 11.085938 16.324219 L 11.070312 16.246094 L 11.054688 16.179688 L 11.054688 16.113281 L 11.039062 16.042969 L 11.039062 15.988281 L 11.019531 15.921875 L 11.019531 15.855469 L 11.003906 15.789062 L 11.003906 15.644531 L 10.988281 15.578125 L 10.988281 15.441406 L 10.96875 15.367188 L 10.96875 15.164062 L 10.953125 15.097656 L 10.953125 14.246094 C 10.988281 13.574219 11.046875 12.925781 11.191406 12.3125 C 10.664062 11.785156 10.085938 11.363281 9.507812 11.027344 C 9.003906 10.738281 8.492188 10.527344 7.976562 10.398438 C 7.558594 11.828125 7.605469 13.359375 8.042969 14.742188 C 8.527344 16.316406 9.472656 17.6875 10.730469 18.460938 C 11.019531 18.621094 11.097656 18.992188 10.941406 19.269531 C 10.765625 19.542969 10.414062 19.625 10.136719 19.464844 C 8.621094 18.542969 7.480469 16.9375 6.917969 15.105469 C 6.371094 13.316406 6.355469 11.324219 7.042969 9.519531 C 7.140625 9.261719 7.414062 9.101562 7.691406 9.152344 C 8.5 9.277344 9.300781 9.570312 10.089844 10.019531 C 10.59375 10.292969 11.070312 10.648438 11.539062 11.050781 C 11.605469 10.871094 11.667969 10.710938 11.734375 10.546875 C 12.261719 9.277344 13.019531 8.214844 13.921875 7.476562 C 14.132812 7.296875 14.449219 7.296875 14.679688 7.476562 C 15.582031 8.214844 16.339844 9.277344 16.867188 10.546875 C 16.933594 10.710938 16.996094 10.871094 17.0625 11.050781 C 17.53125 10.648438 18.015625 10.292969 18.511719 10.019531 C 19.285156 9.585938 20.085938 9.277344 20.875 9.152344 C 21.148438 9.085938 21.4375 9.230469 21.550781 9.519531 C 21.96875 10.617188 22.097656 11.917969 21.917969 13.265625 C 21.738281 14.550781 21.289062 15.90625 20.546875 17.191406 C 19.789062 18.476562 18.859375 19.542969 17.832031 20.34375 C 17.058594 20.921875 16.253906 21.375 15.429688 21.644531 C 17.25 23.324219 19.644531 24.191406 21.210938 24.59375 C 20.554688 23.496094 20.519531 22.480469 20.828125 21.570312 C 21.242188 20.359375 22.257812 19.414062 23.097656 18.816406 C 23.132812 18.800781 23.164062 18.765625 23.191406 18.75 C 24.511719 18.011719 25.722656 17.03125 26.539062 15.855469 C 27.246094 14.84375 27.699219 13.683594 27.699219 12.414062 C 27.699219 10.160156 26.300781 8.097656 24.042969 6.589844 C 21.789062 5.03125 18.570312 4.078125 14.996094 4.078125 Z M 17.472656 12.320312 C 17.617188 13.042969 17.695312 13.835938 17.695312 14.636719 C 17.695312 15.472656 17.617188 16.277344 17.441406 17.035156 C 17.261719 17.84375 17.007812 18.578125 16.683594 19.257812 C 16.539062 19.546875 16.183594 19.660156 15.894531 19.515625 C 15.601562 19.386719 15.492188 19.027344 15.636719 18.738281 C 15.910156 18.144531 16.148438 17.488281 16.292969 16.789062 C 16.4375 16.101562 16.515625 15.375 16.515625 14.636719 C 16.515625 13.300781 16.277344 12.0625 15.84375 10.984375 C 15.457031 10.082031 14.957031 9.308594 14.363281 8.710938 C 13.75 9.308594 13.253906 10.082031 12.878906 10.984375 C 12.460938 11.980469 12.222656 13.136719 12.191406 14.378906 L 12.191406 15.148438 L 12.207031 15.214844 L 12.207031 15.398438 L 12.222656 15.464844 L 12.222656 15.597656 L 12.238281 15.648438 L 12.238281 15.78125 L 12.257812 15.851562 L 12.257812 15.898438 L 12.273438 15.964844 L 12.273438 16.035156 L 12.289062 16.082031 L 12.289062 16.152344 L 12.308594 16.21875 L 12.308594 16.265625 L 12.324219 16.335938 L 12.324219 16.382812 L 12.339844 16.449219 L 12.355469 16.519531 L 12.355469 16.566406 L 12.375 16.636719 L 12.390625 16.683594 L 12.390625 16.75 L 12.40625 16.800781 L 12.425781 16.867188 L 12.441406 16.917969 L 12.441406 16.984375 L 12.457031 17.035156 L 12.472656 17.101562 L 12.492188 17.152344 L 12.507812 17.21875 L 12.523438 17.269531 L 12.539062 17.335938 L 12.539062 17.386719 L 12.558594 17.4375 L 12.574219 17.503906 L 12.589844 17.554688 L 12.609375 17.605469 L 12.625 17.671875 L 12.640625 17.71875 L 12.65625 17.769531 L 12.691406 17.835938 L 12.722656 17.9375 L 12.742188 17.988281 L 12.757812 18.054688 L 12.773438 18.105469 L 12.792969 18.15625 L 12.824219 18.207031 L 12.839844 18.253906 L 12.859375 18.304688 L 12.875 18.371094 L 12.910156 18.421875 L 12.925781 18.472656 L 12.941406 18.503906 L 12.957031 18.554688 L 12.976562 18.574219 L 12.976562 18.605469 L 12.992188 18.621094 L 13.007812 18.65625 L 13.023438 18.707031 L 13.042969 18.722656 L 13.042969 18.738281 L 13.058594 18.773438 L 13.058594 18.789062 L 13.074219 18.824219 L 13.09375 18.839844 L 13.109375 18.875 L 13.109375 18.890625 L 13.125 18.921875 L 13.160156 18.972656 L 13.175781 19.023438 L 13.207031 19.074219 L 13.226562 19.105469 L 13.226562 19.125 L 13.242188 19.15625 L 13.292969 19.234375 L 13.308594 19.269531 L 13.324219 19.285156 L 13.34375 19.320312 L 13.359375 19.367188 L 13.375 19.367188 L 13.394531 19.402344 L 13.425781 19.453125 L 13.441406 19.503906 L 13.476562 19.535156 L 13.507812 19.601562 L 13.527344 19.621094 L 13.527344 19.636719 L 13.542969 19.652344 L 13.558594 19.6875 L 13.578125 19.703125 L 13.59375 19.738281 C 13.660156 19.832031 13.722656 19.914062 13.789062 20.007812 L 13.804688 20.042969 L 13.820312 20.058594 L 13.839844 20.074219 L 13.839844 20.09375 C 13.855469 20.109375 13.871094 20.125 13.886719 20.160156 L 13.90625 20.160156 C 13.9375 20.210938 13.972656 20.253906 14.015625 20.304688 L 14.03125 20.335938 L 14.101562 20.40625 C 14.148438 20.453125 14.195312 20.515625 14.246094 20.566406 L 14.261719 20.597656 L 14.277344 20.597656 C 14.34375 20.667969 14.390625 20.726562 14.457031 20.792969 C 14.488281 20.8125 14.507812 20.828125 14.523438 20.84375 C 14.539062 20.878906 14.574219 20.894531 14.589844 20.910156 C 15.476562 20.714844 16.394531 20.28125 17.230469 19.625 C 18.148438 18.917969 18.984375 17.964844 19.65625 16.824219 C 20.3125 15.664062 20.71875 14.472656 20.882812 13.332031 C 21.011719 12.351562 20.949219 11.433594 20.71875 10.617188 C 20.21875 10.742188 19.707031 10.957031 19.207031 11.246094 C 18.570312 11.367188 18.003906 11.785156 17.472656 12.320312 Z M 5.246094 5.621094 C 7.753906 3.933594 11.199219 2.902344 14.996094 2.902344 C 18.792969 2.902344 22.25 3.933594 24.746094 5.621094 C 27.320312 7.339844 28.917969 9.742188 28.917969 12.414062 C 28.917969 13.945312 28.40625 15.328125 27.5625 16.535156 C 26.628906 17.855469 25.292969 18.960938 23.828125 19.785156 C 23.136719 20.289062 22.3125 21.039062 21.996094 21.957031 C 21.707031 22.808594 21.902344 23.875 23.1875 25.082031 C 23.332031 25.210938 23.398438 25.386719 23.382812 25.582031 C 23.332031 25.90625 23.042969 26.128906 22.726562 26.09375 C 22.707031 26.09375 17.285156 25.386719 14.101562 21.914062 C 10.542969 21.753906 7.339844 20.6875 5.007812 19.050781 C 2.574219 17.335938 1.074219 15.003906 1.074219 12.414062 C 1.074219 9.742188 2.667969 7.347656 5.246094 5.621094 Z M 5.246094 5.621094 " fill-opacity="1" fill-rule="nonzero"/></g><g transform="matrix(1, 0, 0, 1, 17, 1)"><g clip-path="url(#30913f1a65)"><g clip-path="url(#53c968d293)"><g fill="#8868c2" fill-opacity="1"><g transform="translate(0.79007, 2.54839)"><g><path d="M 0.140625 -0.09375 C 0.140625 -0.132812 0.148438 -0.164062 0.171875 -0.1875 C 0.191406 -0.21875 0.21875 -0.234375 0.25 -0.234375 C 0.289062 -0.234375 0.320312 -0.21875 0.34375 -0.1875 C 0.363281 -0.164062 0.375 -0.132812 0.375 -0.09375 C 0.375 -0.0507812 0.363281 -0.0195312 0.34375 0 C 0.320312 0.0195312 0.289062 0.03125 0.25 0.03125 C 0.21875 0.03125 0.191406 0.0195312 0.171875 0 C 0.148438 -0.0195312 0.140625 -0.0507812 0.140625 -0.09375 Z M 0.140625 -0.09375 "/></g></g></g></g></g></g></svg>